<?xml version="1.0" encoding="UTF-8"?><svg id="Layer_1" xmlns="http://www.w3.org/2000/svg" viewBox="0 0 813.159 869.52"><path d="M795.616,760.92c-58.717,15.603-118.275,27.96-178.341,36.955-13.042,1.955-28.097,4.712-40.416-.645-32.282,47.591-83.138,68.728-140.839,71.896-8.701.45-17.598.508-26.611.215-22.838-.782-46.36-4.067-70.058-9.346-49.488-10.989-99.289-30.678-143.4-54.709-27.276-14.821-52.362-31.265-73.734-48.432-12.475-9.816-23.6-19.866-33.298-29.935C32.685,668.337-9.217,588.777,1.752,508.317c10.91-80.401,90.451-152.746,169.503-134.269,44.874,10.441,79.306,45.382,119.995,67.066-21.352-35.019-19.905-106.465-20.785-134.738-2.151-68.963,7.626-138.414,29.173-203.994,6.667-20.394,16.757-39.145,29.896-54.943,4.497-5.436,9.288-10.5,14.489-15.134C366.041,12.497,394.177.218,427.124.003c26.435-.176,48.823,7.43,66.714,20.53,5.475,3.93,10.539,8.408,15.134,13.355,23.718,25.223,35.938,61.963,34.647,100.834-.489,14.254-2.053,28.625-4.575,42.997,14.899-9.816,30.991-17.206,47.631-21.645,6.804-1.858,13.648-3.207,20.589-3.989,29.388-3.441,59.46,2.776,86.462,21.625,21.684,15.134,35.567,34.257,42.605,55.295,2.209,6.374,3.754,12.944,4.654,19.651,4.79,34.276-6.452,71.329-29.955,102.3-14.997,19.768-32.81,37.854-52.695,54.239-4.419,3.656-8.955,7.235-13.628,10.695-47.631,35.938-104.705,62.53-160.176,78.954,6.785,2.62,13.452,5.514,19.983,8.799,10.539,5.377,20.609,11.771,29.896,19.005,10.207,8.056,19.592,17.05,28.058,26.885,32.008,37.444,50.466,86.775,48.98,135.99,13.237,2.483,26.475,6.824,37.346,9.503,43.075,10.559,86.13,21.137,129.205,31.715,4.145,1.017,8.271,2.033,12.416,3.05,22.544,5.533,34.941,23.209,5.201,31.128Z"/></svg>