<?xml version="1.0" encoding="UTF-8"?>
<svg id="Layer_1" xmlns="http://www.w3.org/2000/svg" version="1.1" viewBox="0 0 1080 1080">
  <!-- Generator: Adobe Illustrator 29.6.1, SVG Export Plug-In . SVG Version: 2.1.1 Build 9)  -->
  <path d="M852.68,837.45c-10.35-2.31-19.46-6.72-19.46-6.72-9.3-4.51-19.76-16.13-23.25-25.86l-144.15-176.94c-8.24-6.23-7.38-15,1.92-19.51,0,0,133.58-64.73,165.3-85.73,107.92-71.4,183.02-178.5,89.78-279.85-30.01-32.62-66.78-45.71-106.16-45.71-29.58,0-73.39,13.84-73.39,13.84-9.84,3.12-19.15-2.7-20.68-12.92,0,0-26.57-177.61-142.16-177.61-141.8,0-182.93,214.29-182.93,356.07,0,20.11-6.74,44.02-6.74,44.02-2.8,9.93-10.99,21.73-18.2,26.18s-34.7,15-44.9,13.28c0,0-33.95-5.78-58.1-5.78-78.85,0-141.84,32.15-177.5,101.5-73.26,142.48,65.82,350.27,297.56,457.76,75.51,35.02,143.12,50.87,200.99,50.87,102.84,0,194.46-116.62,194.46-116.62,6.38-8.13,19.4-11.49,28.92-7.49,0,0,30.01,12.6,50.61,12.6h1.07c96.41-1.18,175.94-28.28,175.94-52.17s-101.41-43.64-188.96-63.25v.04h.02ZM92.08,693.26c4.66-32.32,40.86-73.73,110.69-126.61,43.15-32.68,128.73-87.4,128.73-87.4,8.69-5.56,19.29-9.28,23.53-8.26s10.55,10.85,4.43,19.17c0,0-153.88,209.09-43.79,209.09,51.34,0,162.63-75.3,162.63-75.3,8.56-5.78,19.92-3.4,25.24,5.33s14.37,36.94,4.68,40.51c0,0-107.04,39.44-160.66,54.4-67.12,18.74-122.4,28.24-164.3,28.24-38.82,0-65.82-8.17-80.3-24.26-9.22-10.25-12.79-21.67-10.87-34.91h0ZM414.32,489.34c43.29,16.13,117.84,57.54,117.84,57.54,9.03,5.01,12.02,13.43,6.63,18.7s-26.2,13.22-34.2,6.7c0,0-22.18-18.07-26.84-18.05h-.08c-11.34.28,5.52,37.15,5.52,37.15,4.3,9.39,1.13,22.25-7.02,28.58,0,0-24.38,18.91-43.38,30.87-44.41,27.98-84.92,42.78-117.15,42.78-21.31,0-34.48-4.26-39.15-12.66-10.54-18.91,16.94-63.23,46.01-110.16,17.86-28.83,44.53-77.75,44.53-77.75,4.94-9.07,17.05-13.97,26.91-10.89,0,0,7.36,2.31,20.38,7.15h0v.02ZM395.95,478.11c-9.65-3.68-15.66-11.02-13.35-16.34,2.31-5.31,13.56-22.97,20.81-27.44l6.46-3.98c67.12-41.37,125.07-77.09,153.24-102.42,37.16-33.43,79.49-63.61,119.21-84.98,12.68-6.82,20.02-10.14,20.02-10.14,9.41-4.24,16.56.71,15.89,11.02,0,0-1.6,24.39-4.85,48.32-8.9,65.52-69.41,164.81-154.14,252.96l-2.2,2.29c-2.42,2.48-11.85.49-20.94-4.41l-140.15-64.88h0ZM543.56,568.81c5.46-5.37,17.09-5.26,25.82.24,0,0,.3.19,8.43,5.56,22.44,14.84,45.92,30.54,45.92,30.54,8.58,5.75,7.87,13.86-1.58,18.01l-21.73,9.43c-9.5,4.06-23.61,1.78-31.36-5.03l-31.42-27.4c-7.79-6.78.47-25.97,5.92-31.34h0ZM510.36,584.1c2.52,2.12,1.63,6.42-1.93,9.58s-16.26,3.36-20.28-6.16c0,0-11.04-18.44-10.8-21.69s4.34-3.96,9.13-1.61l21.71,18.07,2.16,1.8h.02v.02ZM501.44,615.25l-1.13-1.9c-1.15-1.97,1.09-6.25,4.96-9.54s20.36-6.67,28.15.11c0,0,17.9,15.53,37.43,32.73l2.14,1.9c2.4,2.1-3.46,7.06-13,11.02,0,0-6.87,2.85-19.19,7.77l-3.23,1.3c-3.53,1.39-11.12-4.49-16.88-13.05,0,0-10.97-16.32-19.27-30.35h.02ZM566.32,653.06c8.66-3.59,22.12-.96,29.9,5.84l199.38,155.79c8.3,6.14,14.5,19.59,13.75,29.9,0,0-1.48,20.47-6.14,44.83-2.37,12.39-4,17.63-4,17.63-3.06,9.86-11.98,12.43-19.81,5.69l-233.07-232.22c-6.5-8.02,11.32-23.89,19.98-27.47h0l.02.02ZM780.12,730.43c20.36,26.37,27.55,70.46,27.55,70.46,1.67,10.2-3.76,13.48-12.04,7.32l-193.63-151.76c-7.77-6.8-6.38-15.68,3.12-19.74l22.54-9.8c9.45-4.17,24.06-2.7,32.49,3.29,0,0,94.46,67.15,119.98,100.22h0ZM798.05,204.91c10.25-1.18,18.65-2.14,18.67-2.14s8.3,1.63,18.42,3.62c0,0,56.77,11.15,83.57,40.26,31.04,33.73,44.45,69.92,39.87,107.51-6.72,55.23-52.41,113.41-128.62,163.83-31.49,20.83-167.64,86.72-167.64,86.72-9.3,4.51-23.92,3.47-32.51-2.27,0,0-25.37-16.98-48.88-32.53l-7.81-5.16c-8.56-5.41-10.29-16.43-3.83-24.49,0,0,139.91-175.12,149.71-247.34,3.23-23.83,5.03-51.44,5.03-51.44.68-10.31,9.28-21.28,19.14-24.36l54.91-12.21h-.02v-.02ZM403.18,376.53c0-39.89,3.7-142.08,37.9-229.16,14.74-37.5,33.18-66.82,54.84-87.12,24.19-22.69,52.64-34.18,84.54-34.18,43.94,0,77.82,13.28,100.69,39.47,19.49,22.33,31.77,54.8,36.47,96.51,1.93,17.16,1.99,38.1,1.99,38.1.02,10.33-7.32,22.93-16.32,28,0,0-100.94,56.88-143.96,95.57-29.71,26.72-150.25,100.54-150.25,100.54-8.81,5.39-13.9,1.63-11.29-8.38,0,0,5.37-20.69,5.37-39.38h0l.02.02ZM373.1,453.08c5.22-3.23,8.11-2.48,6.44,1.69s-9.39,14.37-12.9,13.41,1.24-11.87,6.46-15.1ZM97.12,558.32c16.88-32.84,40.53-57.86,70.27-74.4,28.69-15.94,83.57-21.99,83.57-21.99,10.27-1.13,18.67-2.05,18.67-2.05,0,0,8.43.47,18.76,1.05l32.49,3.59c10.2,1.62,11.49,7.61,2.89,13.3l-225.48,204.81c-6.72,7.85-13.03,5.86-14.05-4.41,0,0-7.83-79.55,12.9-119.89h-.02ZM733.43,1012.83c-36.79,30.03-86.16,45.9-142.78,45.9-59.77,0-126.59-16.94-198.63-50.35-140.45-65.15-283.96-263.25-283.96-263.25-6.07-8.36-10.52-14.61-9.9-13.86l.6.66c16.49,18.33,46.14,26.12,84.49,26.12,87.87,0,328.17-83.83,328.17-83.83,9.75-3.4,23.04.39,29.52,8.43l236.49,235.38c7.83,6.74,10.29,19.74,5.46,28.86,0,0-23.64,44.84-49.46,65.93h0ZM988.16,929.9c-33.73,10.46-78.38,16.77-122.52,17.31h-1c-19.85,0-48.66-12.21-48.66-12.21-9.5-4.04-14.78-15.4-11.7-25.26,0,0,1.95-6.29,4.45-19.29,4.39-23.04,6.01-42.89,6.01-42.89.83-10.29,9.16-15.12,18.5-10.7,0,0,8.06,3.79,18.22,6.08,8.62,1.93,17.37,3.87,26.14,5.8,39.66,8.75,80.68,17.8,111.12,27.19,43.89,13.54,47.31,22.38,47.31,24.77,0,7.15-14.8,18.95-47.85,29.2h-.02v-.02Z"/>
</svg>