<?xml version="1.0" encoding="UTF-8"?>
<svg id="Layer_1" xmlns="http://www.w3.org/2000/svg" version="1.1" viewBox="0 0 552.55 582.19">
  <!-- Generator: Adobe Illustrator 29.6.1, SVG Export Plug-In . SVG Version: 2.1.1 Build 9)  -->
  <defs>
    <style>
      .st0 {
        display: none;
        fill: #b3b3b3;
      }
    </style>
  </defs>
  <path class="st0" d="M1263.19,509.53c-41.34,10.98-83.26,19.68-125.55,26.02-9.18,1.38-19.78,3.32-28.45-.45-22.73,33.5-58.53,48.38-99.15,50.61-6.13.32-12.39.36-18.73.15-16.08-.55-32.64-2.86-49.32-6.58-34.84-7.74-69.9-21.6-100.95-38.51-19.2-10.43-36.86-22.01-51.91-34.1-8.78-6.91-16.61-13.99-23.44-21.07-39.59-41.24-69.09-97.25-61.36-153.89,7.68-56.6,63.68-107.53,119.33-94.52,31.59,7.35,55.83,31.95,84.48,47.21-15.03-24.65-14.01-74.95-14.63-94.85-1.51-48.55,5.37-97.44,20.54-143.61,4.69-14.36,11.8-27.56,21.05-38.68,3.17-3.83,6.54-7.39,10.2-10.65,15.5-13.94,35.31-22.59,58.5-22.74,18.61-.12,34.37,5.23,46.97,14.45,3.85,2.77,7.42,5.92,10.65,9.4,16.7,17.76,25.3,43.62,24.39,70.99-.34,10.03-1.45,20.15-3.22,30.27,10.49-6.91,21.82-12.11,33.53-15.24,4.79-1.31,9.61-2.26,14.49-2.81,20.69-2.42,41.86,1.95,60.87,15.22,15.27,10.65,25.04,24.12,29.99,38.93,1.56,4.49,2.64,9.11,3.28,13.83,3.37,24.13-4.54,50.21-21.09,72.02-10.56,13.92-23.1,26.65-37.1,38.18-3.11,2.57-6.3,5.09-9.59,7.53-33.53,25.3-73.71,44.02-112.76,55.58,4.78,1.84,9.47,3.88,14.07,6.19,7.42,3.79,14.51,8.29,21.05,13.38,7.19,5.67,13.79,12,19.75,18.93,22.53,26.36,35.53,61.09,34.48,95.73,9.32,1.75,18.64,4.8,26.29,6.69,30.32,7.43,60.63,14.88,90.96,22.33,2.92.72,5.82,1.43,8.74,2.15,15.87,3.9,24.6,16.34,3.66,21.91h-.02Z"/>
  <g>
    <path d="M669.62,461.9c-9.95,0-18.83-1.25-26.64-3.73-7.82-2.49-14.74-5.14-20.78-7.99-6.04-2.84-11.1-4.79-15.18-5.86-4.09-1.07-7.11-.44-9.06,1.87-1.96,2.31-2.93,7.72-2.93,16.25h-7.46l-13.32-84.71h7.46c7.81,22.73,19.98,39.96,36.49,51.68,16.52,11.72,33.65,17.58,51.41,17.58s32.85-4.7,44.22-14.12c11.36-9.41,17.05-21.93,17.05-37.56,0-13.14-3.73-23.71-11.19-31.7s-17.05-14.65-28.77-19.98c-11.72-5.33-24.07-10.39-37.03-15.18-12.97-4.79-25.31-10.21-37.03-16.25-11.72-6.04-21.31-13.85-28.77-23.44s-11.19-22.02-11.19-37.29c0-14.2,3.46-26.55,10.39-37.03,6.93-10.47,16.42-18.65,28.5-24.51,12.07-5.86,25.57-8.79,40.49-8.79,9.94,0,18.82,1.16,26.64,3.46,7.81,2.31,14.65,4.89,20.51,7.73,5.86,2.85,10.66,4.89,14.38,6.13,3.73,1.25,6.57.72,8.52-1.6,1.95-2.31,2.93-7.54,2.93-15.72h7.46l12.25,78.32h-7.46c-7.46-19.89-18.47-35.43-33.03-46.62-14.57-11.19-31.62-16.78-51.15-16.78-15.63,0-28.59,4.35-38.89,13.05-10.31,8.71-15.45,19.98-15.45,33.83,0,12.08,3.73,21.67,11.19,28.77,7.46,7.11,17.05,13.05,28.77,17.85s24.06,9.42,37.03,13.85c12.96,4.45,25.31,9.86,37.03,16.25,11.72,6.39,21.31,14.74,28.77,25.04,7.46,10.31,11.19,23.8,11.19,40.49,0,14.57-3.55,27.7-10.66,39.43-7.11,11.72-17.14,20.87-30.1,27.44-12.97,6.57-28.5,9.86-46.62,9.86l.03-.02Z"/>
    <path d="M997.8,462.43c-6.39,0-12.25-1.51-17.58-4.53s-9.41-7.46-12.25-13.32c-2.85-5.86-4.26-12.52-4.26-19.98v-25.57c-16.34,22.73-31.88,38.98-46.62,48.75-14.74,9.76-30.1,14.65-46.08,14.65s-29.66-3.55-41.02-10.66c-11.37-7.1-19.98-17.22-25.84-30.37-5.86-13.14-8.79-28.59-8.79-46.35v-136.39c0-14.92-2.93-24.15-8.79-27.7s-16.25-3.55-31.17,0v-7.46l61.27-22.38h7.46v189.67c0,21.31,5.59,37.39,16.78,48.22,11.19,10.84,26.01,16.25,44.49,16.25,14.92,0,28.24-4,39.96-11.99,11.72-7.99,24.51-20.15,38.36-36.5v-148.11c0-14.92-2.93-24.15-8.79-27.7s-16.07-3.55-30.63,0v-7.46l61.27-22.38h7.46v241.35c0,6.04,1.51,10.84,4.53,14.38,3.01,3.55,6.83,5.33,11.45,5.33,3.55,0,7.1-1.24,10.66-3.73,3.55-2.48,6.93-6.74,10.12-12.79l6.39,2.66c-3.91,9.24-8.26,16.34-13.05,21.31s-9.42,8.34-13.85,10.12c-4.45,1.77-8.26,2.66-11.46,2.66l-.02.02h0Z"/>
    <path d="M1165.08,181.13c12.43,0,21.93,2.4,28.5,7.19s9.86,10.75,9.86,17.85c0,2.85-.72,5.59-2.13,8.26-1.42,2.66-3.2,4.98-5.33,6.93-2.13,1.96-4.98,2.93-8.52,2.93-4.26,0-7.64-.88-10.12-2.66-2.49-1.77-4.79-3.81-6.93-6.13-2.13-2.31-4.53-4.35-7.19-6.13-2.66-1.77-6.66-2.66-11.99-2.66-8.88,0-17.23,3.29-25.04,9.86-7.82,6.58-14.21,15.45-19.18,26.64-4.98,11.19-7.46,24.07-7.46,38.63v131.59c0,8.52,2.13,15.01,6.39,19.45,4.26,4.45,10.56,7.64,18.91,9.59,8.34,1.96,18.38,3.46,30.1,4.53v7.46h-124.14v-7.46c9.59-1.07,17.22-2.84,22.91-5.33,5.68-2.48,9.86-6.04,12.52-10.66,2.66-4.61,4-10.47,4-17.58v-174.75c0-9.94-1.25-17.22-3.73-21.84-2.49-4.61-6.58-7.28-12.25-7.99-5.69-.71-13.5,0-23.44,2.13v-7.46l61.27-22.38h7.46v62.87c3.55-13.49,8.61-24.95,15.18-34.36,6.57-9.41,14.2-16.52,22.91-21.31,8.7-4.79,17.85-7.19,27.44-7.19v-.02h0Z"/>
    <path d="M1336.63,181.13c22.73,0,42.36,5.78,58.87,17.31,16.52,11.55,29.39,27.35,38.63,47.42,9.23,20.07,13.85,43.42,13.85,70.06,0,22.03-2.85,41.91-8.52,59.67-5.69,17.76-13.94,33.22-24.77,46.35-10.84,13.14-23.62,23.18-38.36,30.1-14.74,6.93-31.17,10.39-49.28,10.39-16.7,0-32.15-3.46-46.35-10.39-14.21-6.93-25.4-16.07-33.56-27.44l-16.52,37.83h-7.46V126.78c0-9.94-1.25-17.22-3.73-21.84-2.49-4.61-6.58-7.28-12.25-7.99-5.69-.71-13.5,0-23.44,2.13v-7.46l61.27-22.38h7.46v180.08c4.97-20.25,15.09-36.67,30.37-49.28,15.27-12.6,33.21-18.91,53.81-18.91h-.02ZM1332.9,447.52c9.94,0,19.18-1.68,27.7-5.06,8.52-3.37,16.16-8.34,22.91-14.92,6.74-6.57,12.52-14.38,17.32-23.44,4.79-9.06,8.43-19.18,10.92-30.37,2.48-11.19,3.73-23.35,3.73-36.5,0-26.99-3.82-50.7-11.45-71.12-7.64-20.42-18.3-36.5-31.97-48.22-13.68-11.72-29.93-17.58-48.75-17.58-11.37,0-21.94,3.02-31.7,9.06-9.77,6.04-17.94,14.04-24.51,23.97-6.58,9.95-11.46,20.96-14.65,33.03v98.03c0,9.95,1.68,19.8,5.06,29.57,3.37,9.77,8.43,18.65,15.18,26.64,6.74,7.99,15.09,14.48,25.04,19.45,9.94,4.98,21.66,7.46,35.16,7.46h0Z"/>
    <path d="M1582.24,461.9c-18.47,0-35.16-3.38-50.08-10.12s-27.53-16.16-37.83-28.24c-10.31-12.07-18.11-26.28-23.44-42.62-5.33-16.33-7.99-34.1-7.99-53.28,0-21.66,2.75-41.37,8.26-59.14,5.5-17.76,13.4-33.21,23.71-46.35,10.3-13.14,22.73-23.26,37.29-30.37,14.56-7.1,30.72-10.66,48.48-10.66,20.59,0,38,5.33,52.21,15.98,14.2,10.66,24.68,24.69,31.43,42.09,6.74,17.41,8.87,36.23,6.39,56.47h-181.14l.53-14.92h150.24c.71-12.07-.36-23.18-3.2-33.3-2.85-10.12-7.28-19.09-13.32-26.91-6.04-7.81-13.24-13.85-21.58-18.11-8.35-4.26-17.67-6.39-27.97-6.39s-20.25,1.78-28.77,5.33-15.9,8.62-22.11,15.18c-6.22,6.58-11.45,14.65-15.72,24.24-4.26,9.59-7.46,20.51-9.59,32.77-2.13,12.25-3.2,25.67-3.2,40.22,0,23.44,3.9,44.4,11.72,62.87,7.81,18.47,19.09,32.86,33.83,43.15,14.73,10.31,32.23,15.45,52.48,15.45,17.4,0,32.67-5.06,45.82-15.18,13.14-10.12,22.02-23.35,26.64-39.69l6.93,1.6c-2.49,15.98-7.99,29.93-16.52,41.82-8.52,11.9-19.01,21.23-31.43,27.97-12.44,6.74-26.46,10.12-42.09,10.12l.02.02h0Z"/>
    <path d="M1806.53,461.9c-18.47,0-35.16-3.38-50.08-10.12s-27.53-16.16-37.83-28.24c-10.31-12.07-18.11-26.28-23.44-42.62-5.33-16.33-7.99-34.1-7.99-53.28,0-21.66,2.75-41.37,8.26-59.14,5.5-17.76,13.4-33.21,23.71-46.35,10.3-13.14,22.73-23.26,37.29-30.37,14.56-7.1,30.72-10.66,48.48-10.66,20.59,0,38,5.33,52.21,15.98,14.2,10.66,24.68,24.69,31.43,42.09,6.74,17.41,8.87,36.23,6.39,56.47h-181.14l.53-14.92h150.24c.71-12.07-.36-23.18-3.2-33.3-2.85-10.12-7.28-19.09-13.32-26.91-6.04-7.81-13.24-13.85-21.58-18.11-8.35-4.26-17.67-6.39-27.97-6.39s-20.25,1.78-28.77,5.33-15.9,8.62-22.11,15.18c-6.22,6.58-11.45,14.65-15.72,24.24-4.26,9.59-7.46,20.51-9.59,32.77-2.13,12.25-3.2,25.67-3.2,40.22,0,23.44,3.9,44.4,11.72,62.87,7.81,18.47,19.09,32.86,33.83,43.15,14.73,10.31,32.23,15.45,52.48,15.45,17.4,0,32.67-5.06,45.82-15.18,13.14-10.12,22.02-23.35,26.64-39.69l6.93,1.6c-2.49,15.98-7.99,29.93-16.52,41.82-8.52,11.9-19.01,21.23-31.43,27.97-12.44,6.74-26.46,10.12-42.09,10.12l.02.02h0Z"/>
  </g>
  <path d="M424.07,445.33c-5.51-1.23-10.36-3.58-10.36-3.58-4.95-2.4-10.52-8.59-12.38-13.77l-76.76-94.22c-4.39-3.32-3.93-7.99,1.02-10.39,0,0,71.13-34.47,88.02-45.65,57.47-38.02,97.46-95.05,47.81-149.02-15.98-17.37-35.56-24.34-56.53-24.34-15.75,0-39.08,7.37-39.08,7.37-5.24,1.66-10.2-1.44-11.01-6.88,0,0-14.15-94.58-75.7-94.58-75.51,0-97.41,114.11-97.41,189.61,0,10.71-3.59,23.44-3.59,23.44-1.49,5.29-5.85,11.57-9.69,13.94s-18.48,7.99-23.91,7.07c0,0-18.08-3.08-30.94-3.08-41.99,0-75.53,17.12-94.52,54.05-39.01,75.87,35.05,186.52,158.45,243.76,40.21,18.65,76.21,27.09,107.03,27.09,54.76,0,103.55-62.1,103.55-62.1,3.4-4.33,10.33-6.12,15.4-3.99,0,0,15.98,6.71,26.95,6.71h.57c51.34-.63,93.69-15.06,93.69-27.78s-54-23.24-100.62-33.68v.02h.01ZM19.05,368.55c2.48-17.21,21.76-39.26,58.94-67.42,22.98-17.4,68.55-46.54,68.55-46.54,4.63-2.96,10.27-4.94,12.53-4.4s5.62,5.78,2.36,10.21c0,0-81.94,111.34-23.32,111.34,27.34,0,86.6-40.1,86.6-40.1,4.56-3.08,10.61-1.81,13.44,2.84s7.65,19.67,2.49,21.57c0,0-57,21-85.55,28.97-35.74,9.98-65.18,15.04-87.49,15.04-20.67,0-35.05-4.35-42.76-12.92-4.91-5.46-6.81-11.54-5.79-18.59h0ZM190.64,259.96c23.05,8.59,62.75,30.64,62.75,30.64,4.81,2.67,6.4,7.15,3.53,9.96s-13.95,7.04-18.21,3.57c0,0-11.81-9.62-14.29-9.61h-.04c-6.04.15,2.94,19.78,2.94,19.78,2.29,5,.6,11.85-3.74,15.22,0,0-12.98,10.07-23.1,16.44-23.65,14.9-45.22,22.78-62.38,22.78-11.35,0-18.36-2.27-20.85-6.74-5.61-10.07,9.02-33.67,24.5-58.66,9.51-15.35,23.71-41.4,23.71-41.4,2.63-4.83,9.08-7.44,14.33-5.8,0,0,3.92,1.23,10.85,3.81h0ZM180.86,253.98c-5.14-1.96-8.34-5.87-7.11-8.7s7.22-12.23,11.08-14.61l3.44-2.12c35.74-22.03,66.6-41.05,81.6-54.54,19.79-17.8,42.33-33.87,63.48-45.25,6.75-3.63,10.66-5.4,10.66-5.4,5.01-2.26,8.82.38,8.46,5.87,0,0-.85,12.99-2.58,25.73-4.74,34.89-36.96,87.76-82.08,134.7l-1.17,1.22c-1.29,1.32-6.31.26-11.15-2.35l-74.63-34.55h0ZM259.46,302.28c2.91-2.86,9.1-2.8,13.75.13,0,0,.16.1,4.49,2.96,11.95,7.9,24.45,16.26,24.45,16.26,4.57,3.06,4.19,7.38-.84,9.59l-11.57,5.02c-5.06,2.16-12.57.95-16.7-2.68l-16.73-14.59c-4.15-3.61.25-13.83,3.15-16.69h0ZM241.78,310.42c1.34,1.13.87,3.42-1.03,5.1s-8.66,1.79-10.8-3.28c0,0-5.88-9.82-5.75-11.55s2.31-2.11,4.86-.86l11.56,9.62,1.15.96h.01ZM237.03,327.01l-.6-1.01c-.61-1.05.58-3.33,2.64-5.08s10.84-3.55,14.99.06c0,0,9.53,8.27,19.93,17.43l1.14,1.01c1.28,1.12-1.84,3.76-6.92,5.87,0,0-3.66,1.52-10.22,4.14l-1.72.69c-1.88.74-5.92-2.39-8.99-6.95,0,0-5.84-8.69-10.26-16.16h.01ZM271.58,347.14c4.61-1.91,11.78-.51,15.92,3.11l106.17,82.96c4.42,3.27,7.72,10.43,7.32,15.92,0,0-.79,10.9-3.27,23.87-1.26,6.6-2.13,9.39-2.13,9.39-1.63,5.25-6.38,6.62-10.55,3.03l-124.11-123.66c-3.46-4.27,6.03-12.72,10.64-14.63h0ZM385.43,388.34c10.84,14.04,14.67,37.52,14.67,37.52.89,5.43-2,7.18-6.41,3.9l-103.11-80.81c-4.14-3.62-3.4-8.35,1.66-10.51l12-5.22c5.03-2.22,12.81-1.44,17.3,1.75,0,0,50.3,35.76,63.89,53.37h0ZM394.98,108.5c5.46-.63,9.93-1.14,9.94-1.14s4.42.87,9.81,1.93c0,0,30.23,5.94,44.5,21.44,16.53,17.96,23.67,37.23,21.23,57.25-3.58,29.41-27.91,60.39-68.49,87.24-16.77,11.09-89.27,46.18-89.27,46.18-4.95,2.4-12.74,1.85-17.31-1.21,0,0-13.51-9.04-26.03-17.32l-4.16-2.75c-4.56-2.88-5.48-8.75-2.04-13.04,0,0,74.5-93.25,79.72-131.71,1.72-12.69,2.68-27.39,2.68-27.39.36-5.49,4.94-11.33,10.19-12.97l29.24-6.5h-.01ZM184.71,199.89c0-21.24,1.97-75.66,20.18-122.03,7.85-19.97,17.67-35.58,29.2-46.39,12.88-12.08,28.03-18.2,45.02-18.2,23.4,0,41.44,7.07,53.62,21.02,10.38,11.89,16.92,29.18,19.42,51.39,1.03,9.14,1.06,20.29,1.06,20.29.01,5.5-3.9,12.21-8.69,14.91,0,0-53.75,30.29-76.66,50.89-15.82,14.23-80.01,53.54-80.01,53.54-4.69,2.87-7.4.87-6.01-4.46,0,0,2.86-11.02,2.86-20.97h0ZM168.69,240.65c2.78-1.72,4.32-1.32,3.43.9s-5,7.65-6.87,7.14.66-6.32,3.44-8.04ZM21.73,296.69c8.99-17.49,21.58-30.81,37.42-39.62,15.28-8.49,44.5-11.71,44.5-11.71,5.47-.6,9.94-1.09,9.94-1.09,0,0,4.49.25,9.99.56l17.3,1.91c5.43.86,6.12,4.05,1.54,7.08l-120.07,109.06c-3.58,4.18-6.94,3.12-7.48-2.35,0,0-4.17-42.36,6.87-63.84h0ZM360.57,538.72c-19.59,15.99-45.88,24.44-76.03,24.44-31.83,0-67.41-9.02-105.77-26.81C103.98,501.66,27.56,396.17,27.56,396.17c-3.23-4.45-5.6-7.78-5.27-7.38l.32.35c8.78,9.76,24.57,13.91,44.99,13.91,46.79,0,174.75-44.64,174.75-44.64,5.19-1.81,12.27.21,15.72,4.49l125.93,125.34c4.17,3.59,5.48,10.51,2.91,15.37,0,0-12.59,23.88-26.34,35.11h0ZM496.21,494.56c-17.96,5.57-41.74,8.93-65.24,9.22h-.53c-10.57,0-25.91-6.5-25.91-6.5-5.06-2.15-7.87-8.2-6.23-13.45,0,0,1.04-3.35,2.37-10.27,2.34-12.27,3.2-22.84,3.2-22.84.44-5.48,4.88-8.05,9.85-5.7,0,0,4.29,2.02,9.7,3.24,4.59,1.03,9.25,2.06,13.92,3.09,21.12,4.66,42.96,9.48,59.17,14.48,23.37,7.21,25.19,11.92,25.19,13.19,0,3.81-7.88,10.09-25.48,15.55h-.01Z"/>
</svg>